<?xml version="1.0" encoding="utf-8"?>
<!-- Generator: Adobe Illustrator 17.0.0, SVG Export Plug-In . SVG Version: 6.00 Build 0)  -->
<!DOCTYPE svg PUBLIC "-//W3C//DTD SVG 1.1//EN" "http://www.w3.org/Graphics/SVG/1.1/DTD/svg11.dtd">
<svg version="1.1" id="Layer_1" xmlns="http://www.w3.org/2000/svg" xmlns:xlink="http://www.w3.org/1999/xlink" x="0px" y="0px"
	 width="512px" height="512px" viewBox="0 0 512 512" enable-background="new 0 0 512 512" xml:space="preserve">
<g>
	<g>
		<path fill="#F2BF63" d="M256,4.362C117.024,4.362,4.362,117.024,4.362,256S117.024,507.638,256,507.638
			S507.638,394.976,507.638,256S394.976,4.362,256,4.362z M256,503.522C119.297,503.522,8.478,392.702,8.478,256
			S119.297,8.478,256,8.478S503.522,119.298,503.522,256S392.702,503.522,256,503.522z"/>
	</g>
	<g>
		<defs>
			<circle id="SVGID_1_" cx="256" cy="256" r="205.684"/>
		</defs>
		<use xlink:href="#SVGID_1_"  overflow="visible" fill="#F2BF63"/>
		<clipPath id="SVGID_2_">
			<use xlink:href="#SVGID_1_"  overflow="visible"/>
		</clipPath>
		<g clip-path="url(#SVGID_2_)">
			<polygon opacity="0.2" fill="#020202" points="353.956,119.041 468.868,233.953 635.243,400.329 389.918,632.445 
				165.868,408.396 163.527,396.687 163.527,379.242 168.339,239.784 150.952,222.397 146.374,194.309 140.403,157.076 
				140.025,125.549 167.129,152.654 164.629,125.549 184.876,145.796 185.277,125.549 210.216,150.488 209.465,125.549 
				240.487,156.571 248.763,136.353 264.043,125.549 275.634,124.059 295.18,130.863 330.917,166.599 339.698,175.381 
				339.913,147.593 341.493,129.503 343.074,121.6 352.733,119.041 			"/>
			<g>
				<path fill="#FFFFFF" d="M271.972,119.041c-21.255,0-38.497,26.144-38.497,58.381c0,28.797,13.769,52.738,31.854,57.504
					l-8.239,160.429c0,27.796,29.662,27.392,29.662-1.259l-8.261-159.125c18.142-4.698,31.978-28.673,31.978-57.549
					C310.457,145.186,293.227,119.041,271.972,119.041z M275.805,136.812c-16.028,0-29.022,21.39-29.022,47.781
					c0,10.127,1.911,19.524,5.193,27.257c-5.766-8.734-9.363-21.244-9.363-35.148c0-26.38,12.982-47.781,29.022-47.781
					c9.869,0,18.591,8.126,23.84,20.535C290.293,141.6,283.38,136.812,275.805,136.812z"/>
				<path fill="#FFFFFF" d="M198.979,187.662h-7.048l-6.654-62.112l-6.654,62.112h-7.351l-6.643-62.112l-6.643,62.112h-7.475
					l-10.487-62.112c-3.271,29.752-13.791,95.517,28.089,106.555l-7.25,160.417c0,27.796,29.662,27.392,29.662-1.259l-9.273-159.125
					c42.004-10.869,30.472-75.713,28.212-106.589L198.979,187.662z M182.378,406.302c-7.733,3.417-17.4-2.653-17.4-18.242
					l6.429-155.741h1.742l-2.799,154.876C170.351,399.266,176.173,405.65,182.378,406.302z"/>
				<path fill="#FFFFFF" d="M375.335,231.352l-15.702-100.036c-2.653-19.625-22.03-20.76-22.03,0.416V392.05
					c0,30.325,33.484,31.562,30.101-1.135l-14.713-83.064c-2.237-21.581,5.856-20.76,17.534-40.531
					C379.505,252.157,377.594,248.223,375.335,231.352z M348.719,280.279c-4.462,0-4.462,0-4.462,0V129.157v-2.844h0.91
					c0,0-0.011-0.011-0.011-0.023c5.092-1.619,9.824,3.248,11.195,13.353l13.926,88.695c2.001,14.814,3.675,18.378-4.013,31.506
					C366.264,259.845,355.856,276.267,348.719,280.279z"/>
			</g>
		</g>
	</g>
</g>
</svg>
